PathFileType	4	(X/Y/Z)	C:/Users/opensim2020/Desktop/walking_exp_matlab/subject01_walking05_straight_03.trc																																																																																																																															
DataRate	CameraRate	NumFrames	NumMarkers	Units	OrigDataRate	OrigDataStartFrame	OrigNumFrames																																																																																																																											
100	100	7	43	mm	100	2162	223																																																																																																																											
Frame#	Time	LFHD			RFHD			LBHD			RBHD			C7			T10			CLAV			STRN			RBAK			LSHO			LUPA			LELB			LFRM			LWRA			LWRB			LFIN			RSHO			RUPA			RELB			RFRM			RWRA			RWRB			RFIN			LASI			RASI			LPSI			RPSI			LTHI			LKNE			LTIB			LANK			LHEE			LTOE			RTHI			RKNE			RTIB			RANK			RHEE			RTOE			*39			*40			*41			*42		
		X1	Y1	Z1	X2	Y2	Z2	X3	Y3	Z3	X4	Y4	Z4	X5	Y5	Z5	X6	Y6	Z6	X7	Y7	Z7	X8	Y8	Z8	X9	Y9	Z9	X10	Y10	Z10	X11	Y11	Z11	X12	Y12	Z12	X13	Y13	Z13	X14	Y14	Z14	X15	Y15	Z15	X16	Y16	Z16	X17	Y17	Z17	X18	Y18	Z18	X19	Y19	Z19	X20	Y20	Z20	X21	Y21	Z21	X22	Y22	Z22	X23	Y23	Z23	X24	Y24	Z24	X25	Y25	Z25	X26	Y26	Z26	X27	Y27	Z27	X28	Y28	Z28	X29	Y29	Z29	X30	Y30	Z30	X31	Y31	Z31	X32	Y32	Z32	X33	Y33	Z33	X34	Y34	Z34	X35	Y35	Z35	X36	Y36	Z36	X37	Y37	Z37	X38	Y38	Z38	X39	Y39	Z39	X40	Y40	Z40	X41	Y41	Z41	X42	Y42	Z42	X43	Y43	Z43
																																																																																																																																		
84	0.83	-427.04224	1665.10889	-1106.48962	-410.62848	1678.27625	-994.14935	-529.42102	1593.86389	-1091.48914	-514.43585	1605.62903	-971.93927	-534.84503	1416.86035	-1043.4259	-559.17273	1124.45264	-1027.25122	-386.86295	1356.91174	-1047.36487	-337.97028	1202.97656	-1047.85388	-579.38068	1222.84949	-957.95038	-459.14932	1377.17639	-1205.83923	-505.21866	1191.39807	-1279.54919	-530.86389	1044.36072	-1271.84888	-511.1828	932.01154	-1293.05408	-453.33026	805.23242	-1270.77942	-508.70557	809.32861	-1295.38416	-475.94467	730.12695	-1298.01367	-450.09766	1388.40979	-896.3623	-489.93881	1192.32922	-783.44855	-474.66568	1068.07349	-769.12823	-416.74496	962.55084	-733.00793	-305.39346	874.39856	-747.34314	-347.90866	864.00256	-708.62579	-289.60489	802.07428	-705.96619	-378.11597	922.4668	-1126.96277	-391.5376	916.6579	-910.50092	-568.13055	935.84918	-1090.35266	-575.26068	939.9165	-945.77356	-335.93924	605.98517	-1180.55994	-315.44781	474.57132	-1157.52441	-329.21466	284.82538	-1172.52698	-323.86929	67.5891	-1116.35901	-369.14752	38.42236	-1065.32483	-176.03514	37.61298	-1113.30542	-498.27896	590.04486	-859.3446	-525.09753	430.29388	-876.15558	-661.96558	315.52057	-888.55688	-784.78607	149.96614	-946.00732	-833.83698	148.58647	-1005.5918	-698.9209	31.12273	-949.66083	-431.3522	1706.46509	-1016.66919	1972.88452	1024.14661	-3102.17554	2012.47009	1021.94238	-3140.3457	NaN	NaN	NaN
85	0.84	-418.03198	1666.16931	-1108.24219	-401.38562	1679.33667	-995.66113	-520.53918	1595.0553	-1093.1333	-505.5867	1606.94592	-973.56641	-525.65057	1417.76672	-1044.89587	-549.8609	1125.50562	-1028.46741	-377.95792	1358.17212	-1048.72046	-328.78775	1204.35706	-1049.19836	-570.26318	1223.91382	-959.10144	-450.20731	1378.2793	-1207.18591	-494.64682	1192.23877	-1280.95337	-519.00433	1045.09546	-1273.57959	-498.30902	932.97894	-1294.90564	-439.31778	806.87854	-1272.82898	-494.80301	810.25739	-1297.29578	-461.21948	731.25415	-1300.12646	-441.51303	1389.61707	-897.63464	-482.16318	1193.4906	-785.18256	-467.46082	1069.37	-771.20502	-411.14047	963.14166	-734.72937	-301.75241	872.6355	-748.72968	-344.47552	863.23529	-709.95667	-287.39291	800.04205	-707.23535	-368.77481	924.2113	-1128.83801	-381.50949	918.18958	-912.32129	-558.7627	936.88568	-1090.74658	-564.85876	940.75244	-945.95111	-326.52234	606.77454	-1180.26794	-309.37219	474.38202	-1158.17004	-325.51144	284.72607	-1172.2207	-323.39655	67.78567	-1116.28833	-368.99942	38.47247	-1065.34314	-175.43105	36.9347	-1113.29004	-482.39297	589.98315	-857.9809	-507.38922	430.08908	-873.48761	-646.67145	318.91992	-887.79779	-773.86438	157.76939	-945.92456	-820.70087	159.91232	-1006.73273	-698.77429	31.389	-950.90302	-422.34528	1707.73047	-1018.44049	1973.04919	1023.5434	-3102.07739	2012.52026	1021.94049	-3140.49292	NaN	NaN	NaN
86	0.85	-409.07056	1667.04626	-1109.75513	-392.51419	1680.26099	-997.36078	-511.57675	1596.11975	-1094.69312	-496.72855	1608.1488	-975.12109	-516.5766	1418.76965	-1046.27356	-540.70557	1126.58813	-1029.58801	-368.99588	1359.49585	-1050.09937	-319.74603	1205.60046	-1050.50012	-561.48004	1225.15149	-960.02869	-441.13385	1379.46863	-1208.44946	-484.11261	1193.2533	-1282.44653	-507.22119	1045.91052	-1275.41589	-485.2861	934.06915	-1296.75122	-425.23764	808.48071	-1274.57129	-480.57944	811.40936	-1299.26404	-446.29001	732.7774	-1302.04053	-432.64056	1390.84045	-899.09766	-474.46567	1194.76489	-786.71246	-460.51181	1070.70044	-773.23749	-406.35132	963.46259	-736.52924	-298.30444	870.995	-750.11609	-341.28085	862.5575	-711.31	-285.3317	798.04517	-708.62512	-359.87256	925.78375	-1130.60193	-371.77054	919.70148	-914.22339	-549.68475	937.85992	-1091.14941	-555.03503	941.5976	-946.31573	-319.31229	607.30829	-1181.02393	-304.00845	474.33038	-1158.9679	-322.55713	284.67209	-1172.25818	-323.00839	67.92155	-1116.05518	-368.93381	38.54118	-1065.33594	-174.89163	36.47184	-1112.86426	-466.02872	589.72803	-856.55396	-488.67273	429.98706	-871.39868	-631.07184	322.71512	-887.05988	-761.87476	165.00504	-945.58923	-806.75269	170.45522	-1007.28918	-697.98376	32.42199	-951.95441	-413.37842	1708.91541	-1020.005	1973.09607	1023.67053	-3102.01294	2012.6123	1022.05994	-3140.39917	NaN	NaN	NaN
87	0.86	-400.06369	1667.89294	-1111.16113	-383.36017	1681.81775	-998.25555	-502.71973	1597.125	-1096.20459	-487.82782	1609.16309	-976.5874	-507.82407	1419.79443	-1047.64453	-531.76587	1127.56848	-1030.80029	-360.22318	1360.59192	-1051.25354	-310.77924	1206.70374	-1051.71313	-552.63416	1226.30884	-960.84729	-432.05179	1380.63953	-1209.60107	-473.62808	1194.35657	-1283.99536	-495.46249	1046.77405	-1277.27332	-472.16656	935.19775	-1298.65869	-410.89069	810.3371	-1275.9928	-465.97656	812.63464	-1301.34192	-430.73691	734.43744	-1304.18445	-423.97433	1391.86621	-900.3349	-466.83942	1196.04297	-788.01898	-453.79715	1071.95056	-775.17944	-401.30341	963.99042	-738.18842	-294.95792	869.37701	-751.55627	-337.96094	861.89185	-712.80414	-283.42947	795.97845	-710.22784	-351.11127	927.16864	-1132.33301	-362.41019	921.16602	-916.01306	-540.71851	938.6814	-1091.65491	-546.21643	942.47412	-946.79437	-314.00034	607.30524	-1182.23267	-299.21753	474.13766	-1159.72607	-320.11694	284.57242	-1171.76794	-322.64044	67.96764	-1115.86194	-368.9241	38.56518	-1065.16833	-174.60336	36.11704	-1112.66235	-449.06009	589.17822	-855.29529	-469.99994	430.07581	-869.96191	-614.56866	326.12161	-886.50818	-749.13965	171.91287	-944.86304	-792.80237	180.59354	-1006.75555	-694.26691	35.11324	-952.49963	-404.35818	1709.88416	-1021.56598	1972.94983	1024.10413	-3102.16382	2012.56213	1022.00092	-3140.6311	NaN	NaN	NaN
88	0.87	-391.11288	1668.67871	-1112.53296	-374.57458	1682.06824	-1000.08759	-493.7999	1597.87866	-1097.54565	-478.96582	1610.02136	-977.96381	-498.91351	1420.46362	-1048.83337	-522.87976	1128.46851	-1031.87183	-351.30115	1361.66443	-1052.68811	-302.05219	1207.6897	-1052.82739	-543.72101	1227.31689	-961.83453	-422.88818	1381.79224	-1210.66138	-463.13965	1195.48291	-1285.57971	-483.70828	1047.61902	-1279.21912	-458.9429	936.33594	-1300.68921	-396.12534	811.96246	-1278.00488	-451.17627	813.78119	-1303.2572	-414.65991	736.06305	-1306.13171	-415.1586	1392.93445	-901.56921	-459.27307	1197.29382	-789.16736	-447.18735	1073.04578	-777.02246	-396.53369	964.28156	-739.79645	-291.78183	867.73694	-753.11578	-334.92987	861.18085	-714.29834	-281.62384	793.89966	-711.8653	-342.48627	928.41772	-1134.06958	-353.42191	922.41919	-917.68396	-531.99548	939.42944	-1092.27991	-536.68005	942.71289	-947.35876	-309.75342	606.81238	-1183.69861	-294.85324	473.74731	-1160.51196	-318.23907	284.37454	-1171.59131	-322.45734	67.9052	-1115.72656	-368.86969	38.52019	-1065.02991	-174.41019	35.8251	-1112.74097	-432.75653	588.79352	-854.37347	-451.1701	429.91336	-868.93823	-597.41937	329.22119	-885.64874	-735.06671	178.68053	-944.32458	-778.65057	189.50661	-1005.75171	-687.63281	39.49584	-952.80713	-395.39661	1710.62708	-1023.08704	1973.01953	1023.99878	-3102.00732	2012.51904	1022.01605	-3140.58179	NaN	NaN	NaN
89	0.88	-382.08566	1669.51965	-1113.79102	-365.66473	1682.94666	-1001.25403	-484.76987	1598.69287	-1098.75305	-470.09589	1610.90137	-979.21704	-490.31705	1421.45618	-1049.97681	-514.15643	1129.4176	-1032.90723	-342.52734	1362.55249	-1053.67444	-293.40399	1208.56604	-1053.83801	-535.01392	1228.33093	-962.88983	-413.69702	1382.89734	-1211.62646	-452.60294	1196.59412	-1287.28381	-471.90417	1048.46436	-1281.198	-445.53085	937.44305	-1302.76086	-380.86502	814.25818	-1279.9176	-435.90005	815.14777	-1305.57288	-398.15414	737.94232	-1308.36841	-406.4061	1393.75769	-902.5672	-451.63193	1198.44312	-790.2002	-440.55237	1073.99243	-778.62579	-391.77444	964.49042	-741.26599	-288.65042	866.04352	-754.66589	-331.86203	860.33618	-715.62335	-279.81961	791.77472	-713.82672	-334.00241	929.36237	-1135.66504	-344.56927	923.62915	-919.14288	-523.39496	940.20074	-1092.99158	-528.02972	943.07672	-947.84814	-305.98175	606.16302	-1185.2655	-290.9118	473.21634	-1161.43811	-316.66388	283.9866	-1171.63171	-322.30734	67.87303	-1115.56909	-368.90854	38.56416	-1064.90466	-173.79587	35.32811	-1112.4751	-416.59674	588.43292	-853.88428	-432.00638	429.767	-868.41241	-579.90857	332.29349	-884.06573	-720.36963	185.41902	-944.0271	-764.44507	198.62213	-1004.96875	-678.64783	44.70413	-952.38867	-386.62595	1711.47363	-1024.30933	1972.97473	1023.53949	-3102.00122	2012.57788	1022.06726	-3140.57861	NaN	NaN	NaN
90	0.89	-373.04886	1670.35913	-1114.76697	-356.65005	1683.90784	-1002.29211	-475.78482	1599.65002	-1099.92163	-461.06012	1611.82581	-980.28137	-481.59879	1422.4541	-1050.97534	-505.63541	1130.4707	-1033.88293	-333.85541	1363.35535	-1054.18872	-284.87082	1209.31726	-1054.66699	-526.44922	1229.3717	-964.00507	-404.49304	1383.90576	-1212.47266	-442.01443	1197.65588	-1288.92529	-460.1525	1049.15637	-1283.30432	-432.01791	938.46246	-1304.86902	-365.83981	815.93542	-1281.61707	-420.38092	816.35083	-1307.86902	-381.34787	740.05548	-1311.0603	-397.66904	1394.5885	-903.42847	-443.91953	1199.49597	-791.11908	-433.9971	1074.8728	-780.08923	-387.04913	964.48926	-742.68744	-285.88531	864.19604	-756.66589	-328.74423	859.34308	-717.09094	-277.78763	789.59045	-715.76996	-325.89975	930.02289	-1136.86975	-336.00323	924.82123	-920.18646	-515.02832	940.92468	-1093.7511	-520.17285	943.35516	-948.62256	-303.2388	604.77924	-1185.7074	-287.30347	472.70792	-1162.495	-314.93134	283.67096	-1171.61755	-322.25394	67.87535	-1115.45093	-368.92535	38.55214	-1064.80408	-173.83247	35.30612	-1112.53345	-400.87225	588.38123	-853.77783	-412.86566	429.86536	-868.26361	-561.94141	335.20346	-882.60742	-704.50537	191.89558	-944.25824	-749.16589	206.76675	-1004.83716	-667.14545	50.32747	-950.80438	-377.58679	1712.23694	-1025.31604	1973.18848	1023.44556	-3101.9917	2012.50732	1021.8963	-3140.64648	NaN	NaN	NaN
